<svg width="659" height="404" viewBox="0 0 659 404" fill="none" xmlns="http://www.w3.org/2000/svg">
<g clip-path="url(#clip0_48_2)">
<path d="M210.933 108.692C213.1 104.236 206.272 87.2684 200.268 94.775C197.865 97.927 199.833 101.471 202.103 104.071C203.433 105.71 204.529 106.91 206.257 107.852C207.812 108.596 209.452 109.735 210.817 108.81L210.933 108.692ZM243.487 41.3497C241.756 35.2417 239.091 29.1204 234.788 24.2924C227.793 16.6484 215.165 11.0017 205.487 17.611C195.431 24.359 192.36 37.2564 188.115 47.875C178.377 70.9217 174.983 95.6137 171.376 120.088C169.365 137.967 166.869 155.916 165.696 173.954C165.4 179.367 164.663 184.576 164.448 189.995C164.332 191.794 164.219 195.071 165.395 195.544C168.072 197.107 174.82 189.659 176.955 188.072C183.036 182.591 187.284 175.75 190.937 168.532C195.187 160.706 199.325 152.675 202.724 144.438C204.563 140.1 206.305 135.52 207.26 130.992C208.584 126.236 207.312 122.954 203.271 119.999C199.656 117.355 196.052 115.198 194.055 111.286C189.56 103.162 187.467 91.9324 193.512 84.043C195.307 81.6924 197.855 80.1844 200.903 80.0577C206.728 79.771 212.392 83.3857 215.107 88.571C217.391 92.4804 218.423 96.8577 219.548 101.24C220.315 103.795 221.015 105.926 223.147 106.564C228.864 106.723 233.707 98.9644 236.284 94.435C244.637 78.3217 247.881 59.2537 243.555 41.5924L243.487 41.3497ZM155.113 173.206C155.343 162.116 157.793 150.874 158.823 139.986C161.02 122.939 163.087 105.638 166.104 88.7617C167.793 79.5177 169.716 70.6057 172.408 61.7164C173.075 59.3697 173.941 56.679 174.533 54.4337C174.773 53.4937 174.847 52.9137 174.665 52.943C171.621 56.9137 168.317 63.2457 166.424 68.1417C162.557 78.4684 159.027 88.2044 155.525 98.383C147.387 126.418 143.544 155.264 139.317 184.112C137.813 192.263 136.192 201.158 135.401 209.418C135.016 213.328 136.375 215.09 140.125 213.407C142.891 212.167 146.148 210.524 148.677 208.704C154.104 204.782 153.865 197.768 154.124 191.484C154.256 185.52 154.812 179.286 155.101 173.448L155.113 173.206ZM122.096 232.171C120.212 232.858 120.379 235.146 120.012 237.046C119.54 239.822 119.265 241.795 119.78 244.743C119.985 246.296 120.031 247.346 120.353 245.726C121.091 241.915 121.947 238.468 122.292 234.726C122.277 233.962 122.769 232.655 122.195 232.18L122.096 232.171ZM110.592 193.06C110.344 180.61 111.455 168.447 109.719 156.094C108.352 149.922 108.163 143.734 108.207 137.566C107.999 132.087 107.405 127.067 107.172 121.655C106.828 117.075 107.02 111.616 106.888 106.892C106.812 106.067 106.669 105.595 106.467 105.627C106.225 105.65 105.884 106.439 105.46 107.764C103.672 113.496 102.259 119.828 101.137 125.688C98.86 136.124 96.7213 147.09 95.2813 157.227C93.544 166.603 92.1707 176.814 91.1267 186.474C89.1333 196.975 86.4 207.659 84.912 218.336C84.432 223.172 86.3827 224.931 90.8574 225.008C96.3694 225.282 101.46 225.596 106.517 223.88C108.825 222.951 110.283 220.859 110.543 218.398C111.613 210.078 110.984 201.73 110.599 193.331L110.592 193.06ZM166.953 334.626C156.452 308.148 154.769 279.004 153.437 250.714C153.047 243.504 153.403 236.62 153.813 229.406C153.863 227.006 154.659 222.168 152.637 220.907C149.435 220.587 145.431 223.979 142.175 225.046C136.472 227.374 133.061 230.675 132.264 237.283C131.352 242.57 130.079 248.498 129.289 253.688C126.776 272.386 123.443 291.56 115.953 308.959C114.408 312.683 109.924 316.498 106.9 312.224C103.652 307.556 105.829 299.342 106.068 293.451C106.913 281.93 107.64 270.407 108.7 258.911C108.9 253.367 109.031 247.582 109.083 242.334C109.011 239.264 107.516 236.828 104.281 236.904C100.164 236.92 96.0667 236.938 91.8507 236.418C88.7214 236.086 86.212 235.986 84.1414 237.615C80.5134 241.866 81.2654 247.703 79.2574 253.847C77.1735 263.442 74.5255 272.918 71.862 282.479C67.1531 298.29 64.0438 313.875 56.4328 328.632C50.3443 341.963 43.0771 355.628 30.549 363.974C-8.9145 389.818 -41.1 352.105 -45.5948 313.563C-49.6927 279.068 -40.2422 235.516 -6.8057 218.678C22.8391 206.896 47.6751 236.091 50.0115 263.734C51.7855 279.71 50.8396 296.854 42.5656 310.878C25.635 340.681 -2.3109 335.896 -11.212 303.392C-14.753 290.648 -12.9786 275.699 -4.1781 265.535C0.484963 259.948 10.962 257.526 12.8646 266.576C13.5855 272.88 6.1459 274.851 2.4979 278.879C-5.7833 288.315 -2.5749 304.122 5.58176 312.664C17.0355 325.538 31.138 309.402 35.9579 298.44C40.6563 288.205 40.8151 277.307 40.261 266.31C38.5396 234.196 6.95736 214.555 -16.5932 242.012C-38.7754 264.868 -42.7588 316.096 -24.4942 342.32C-12.9249 361.386 12.6626 365.675 28.7246 349.372C37.1954 341.496 42.3844 330.823 47.436 320.572C53.3828 308.616 57.5276 296.032 60.187 283.107C64.4626 270.072 67.9422 255.986 71.1396 242.523C74.3708 232.452 64.7694 231.583 57.9364 228.618C18.2407 209.41 -6.3677 167.463 -2.61664 123.432C-1.4421 108.628 10.2568 83.967 20.5907 73.1484C24.1574 69.1204 34.6188 60.779 34.9303 70.7617C34.4594 74.0697 31.8402 76.5377 29.647 78.9324C22.9864 85.647 19.3511 93.6283 15.164 101.898C2.62403 125.619 5.19323 155.676 19.4678 178.068C24.7855 188.612 32.5839 197.539 42.3251 204.344C49.9052 210.574 57.636 216.746 67.0823 219.702C72.2688 221.943 74.8694 217.624 75.486 212.863C77.2172 204.366 78.5042 196.258 80.0495 187.656C84.328 162.58 88.3253 136.858 93.1093 111.771C96.916 98.5097 100.577 85.071 105.109 71.9377C107.303 65.3404 110.437 59.2777 112.183 52.6044C113.163 49.375 114.072 43.627 118.085 43.6937C127.389 46.6684 120.079 63.7097 119.763 70.7564C118.472 78.239 118.265 85.727 117.533 93.159C116.768 111.715 117.48 130.731 118.22 149.235C119.799 161.623 120.96 174.383 120.439 187C120.144 194.627 121.177 202.42 120.627 210.056C120.485 211.954 120.373 218.235 122.952 216.826C126.749 211.999 125.901 202.879 127.392 196.57C130.663 172.966 134.696 149.768 138.388 126.323C143.781 98.1723 153.067 70.643 167.348 45.7497C171.739 38.7751 177.049 32.9977 182.113 26.2017C189.587 16.507 198.233 6.74436 211.015 4.75903C219.868 2.7897 228.441 6.12304 235.443 11.6684C252.577 24.7177 256.555 48.999 254.56 69.371C252.177 86.6484 246.105 104.09 232.519 115.702C228.468 119.35 222.503 121.272 219.637 126.066C216.903 130.81 216.192 136.602 214.204 141.63C209.356 154.851 204.016 167.451 197.117 179.592C192.492 187.047 186.007 193.098 180.051 199.492C177.247 202.347 173.981 205.339 170.817 207.454C168.529 209.02 166.061 210.702 165.143 213.319C162.892 223.463 163.729 234.311 163.628 244.531C164.645 260.132 164.447 275.802 166.333 291.512C167.889 302.223 170.961 312.818 173.547 323.472" fill="white"/>
<path d="M226.645 170.216C228.143 163.775 223.748 158.827 217.12 159.778C210.7 160.744 206.339 165.746 202.221 170.436C195.983 177.355 191.437 185.902 189.249 194.935C187.553 200.438 186.228 205.54 187.017 211.136C188.363 223.5 195.016 227.251 203.476 216.448C210.917 207.524 218.248 198.142 222.525 187.187C224.375 181.904 225.752 175.684 226.612 170.455L226.645 170.216ZM229.207 151.566C231.895 150.386 232.581 146.503 235.121 144.82C236.309 143.92 238.073 143.8 239.065 145.032C241.021 147.763 239.797 151.807 239.257 154.967C237.523 163.722 234.365 171.97 232.876 180.787C231.217 190.494 229.488 200.13 230.939 209.871C231.897 215.092 233.711 221.871 239.723 222.935C241.599 223.351 243.639 223.451 245.223 224.04C255.689 229.83 230.629 241.103 223.281 217.068C222.337 214.846 222.317 210.238 220.22 209.138C218.217 209.044 216.512 212.686 214.124 215.68C211.06 219.875 207.479 223.982 203.465 227.236C187.589 239.732 177.703 223.102 177.829 207.926C178.101 187.1 190.3 167.719 206.407 155.587C211.001 152.512 216.943 150.208 222.463 151.134C224.54 151.399 227.111 152.339 229.048 151.627L229.207 151.566Z" fill="white"/>
<path d="M302.776 118.88C303.86 114.871 302.457 113.328 299.051 114.319C295.159 115.422 291.141 116.826 287.305 117.826C279.919 120.018 270.671 119.906 269.377 129.422C265.717 143.851 263.157 158.716 261.021 173.435C260.629 179.7 257.391 192.208 261.499 196.959C267.295 200.9 278.152 184.339 280.877 179.942C287.211 169.427 292.641 158.179 296.713 146.551C299.065 137.604 300.232 128.039 302.721 119.11L302.776 118.88ZM337.579 90.715C340.201 91.2017 339.899 94.8616 337.988 96.7723C334.512 100.304 328.971 102.69 324.576 105.258C320.305 107.594 315.555 109.014 312.881 112.927C310.321 117.015 309.895 121.843 308.633 126.447C307.523 131.371 306.256 136.911 305.364 141.895C303.885 150.282 303.079 158.886 302.307 167.335C302.115 171.932 300.132 184.487 307.972 181.668C315.323 177.224 320.193 168.843 324.659 161.608C329.86 153.163 333.605 144.358 337.427 135.218C338.385 133.15 339.755 130.367 341.653 129.33C345.369 127.503 346.405 132.107 345.557 135.252C343.609 142.931 339.628 150.179 336.027 157.194C329.493 169.338 323.284 181.427 312.044 189.332C303.532 195.086 295.353 189.85 294.619 179.982C294.369 178.812 294.265 173.84 292.708 175.075C287.232 183.007 283.159 191.94 276.032 199.008C271.121 204.36 261.315 210.018 255.595 202.82C248.931 193.795 253.177 173.854 254.964 163.207C256.492 155.68 257.459 147.983 259.285 140.511C260.119 137.04 261.036 133.495 261.579 129.976C262.248 126.32 260.56 123.75 256.695 123.418C248.992 122.802 240.865 121.34 234.5 116.882C214.497 103.676 219.945 76.5616 238.06 64.375C241.127 62.2523 244.203 59.563 247.852 59.1256C250.645 58.7536 252.669 60.7043 252.188 62.8776C251.911 64.2643 250.971 65.3803 249.931 66.3323C246.532 69.1576 242.339 71.6043 239.06 74.795C232.488 80.5083 228.452 90.3537 230.88 98.9163C233.201 106.676 240.129 111.444 247.521 113.602C252.443 114.958 258.163 116.486 263.047 114.467C266.983 112.326 266.785 106.404 268.024 101.944C269.737 93.9323 271.516 86.2563 273.659 78.4643C274.772 74.591 275.528 70.1683 278.363 68.5857C279.688 67.8737 281.116 68.803 281.601 70.1163C282.787 73.271 281.183 77.427 280.256 80.9523C277.573 89.9857 276.499 99.2883 274.551 108.502C273.36 114.24 277.847 113.227 281.655 112.162C288.049 110.56 294.229 109.539 300.424 106.97C308.332 103.848 307.795 95.187 309.705 87.8896C311.015 81.2803 312.383 74.5923 314.648 68.3163C315.376 66.4017 316.324 63.9123 318.259 63.127C319.597 62.5136 321.019 63.355 321.445 64.7736C322.729 68.819 320.272 73.9523 319.651 78.1243C318.852 82.131 318.105 86.1843 317.263 90.2323C316.524 93.7883 315.249 97.7443 316.109 98.975C318.133 101.348 327.305 95.2256 329.82 93.8323C332.116 92.4736 334.675 90.3777 337.423 90.683L337.579 90.715Z" fill="white"/>
<path d="M388.467 14.6803C389.104 7.88301 384.153 6.271 379.779 11.035C375.929 14.919 373.861 19.9163 371.844 25.0417C368.959 31.6377 367.531 38.7563 365.483 45.6097C361.564 59.4977 358.979 73.8097 356.104 87.927C354.915 92.7857 353.081 101.004 358.664 91.5017C361.885 85.759 365.028 80.7603 368.312 75.1123C372.021 67.5523 375.352 59.783 378.611 51.8803C380.932 45.0763 383.807 38.2323 385.679 31.2537C386.896 25.9323 387.793 20.347 388.448 14.943L388.467 14.6803ZM392.133 2.15498C400.129 9.96165 394.872 25.4163 393.008 35.099C385.423 65.6363 365.227 90.5483 351.813 118.516C346.776 130.555 355.355 117.998 357.244 114.968C361.588 108.932 365.024 101.932 371.576 97.9683C382.436 91.6897 389.109 98.8563 389.308 110C390.805 126.184 372.48 158.182 384.501 170.562C387.428 172.76 392.1 170.399 394.968 171.436C396.709 172.02 397.404 173.947 396.488 175.747C395.247 178.219 391.592 180.09 388.327 180.566C380.891 181.675 374.856 174.936 373.091 168.303C370.603 155.232 374.868 141.763 378.085 129.22C379.787 122.832 382.283 116.056 380.943 109.459C380.136 105.652 376.696 104.924 373.837 107.09C369.009 110.527 365.949 116.328 362.524 120.78C359.403 125.186 356.401 130.387 353.78 135.026C349.968 142.603 345.835 149.728 343.44 157.844C342.3 161.468 340.951 165.114 339.789 168.754C338.484 172.435 337.399 177.146 334.684 180.087C331.061 183.554 328.767 179.738 329.395 175.483C330.648 168.815 332.329 162.047 333.232 155.35C336.635 139.367 339.252 123.044 342.939 107.015C344.973 95.959 347.412 84.583 349.812 73.5883C352.28 64.9257 354.483 56.2363 356.54 47.547C359.859 35.8457 363.443 23.5777 369.104 12.8297C373.253 5.19232 383.357 -4.17167 391.96 2.007L392.133 2.15498Z" fill="white"/>
<path d="M411.329 119.128C421.255 111.899 431.013 100.347 434.284 88.2323C435.355 83.6043 431.801 80.0003 427.295 82.0976C422.785 84.203 419.839 88.3883 417.041 92.4936C415.195 94.7963 400.235 125.242 411.124 119.252L411.329 119.128ZM408.009 131.626C406.804 134.843 408.184 138.231 409.307 141.384C412.844 150.686 422.821 160.655 432.377 152.536C435.089 150.514 439.448 150.464 439.256 154.618C439.187 157.818 435.269 161.076 432.095 162.556C416.011 168.932 403.957 154.071 400.336 139.772C398.013 132.147 398.128 123.975 398.845 116.207C400.823 101.379 413.365 77.0323 429.369 74.3016C436.528 72.955 442.068 79.9403 441.857 86.6216C441.94 91.5443 440.064 96.335 437.677 100.538C433.496 107.503 428.211 113.95 422.168 119.536C419.825 121.632 417.511 123.603 415.036 125.266C412.525 127.052 409.327 128.438 408.092 131.424L408.009 131.626Z" fill="white"/>
<path d="M533.868 54.567C533.787 52.8136 532.033 50.9417 530.199 51.0523C525.907 51.943 524.997 58.9536 525.728 62.507C526.371 66.743 531.144 73.1643 532.911 65.4443C533.569 62.7176 533.936 57.4417 533.891 54.7843L533.868 54.567ZM489.681 85.731C489.957 88.427 491.087 84.5256 492.087 82.6416C493.031 80.6896 494.065 78.671 494.639 76.6123C495.045 74.0736 498.041 69.0376 496.603 66.767C495.927 65.9403 494.949 66.6563 494.367 67.3857C493.023 69.0897 492.336 71.7083 491.757 73.9456C491.192 76.9776 489.88 81.999 489.677 85.5403L489.681 85.731ZM560.728 50.5123C563.88 53.363 561.643 58.0457 559.508 61.7203C556.356 66.7097 551.935 70.9403 546.791 74.055C543.401 76.179 539.972 77.647 537.365 80.2497C534.404 83.219 532.655 87.1363 530.507 90.7203C526.265 98.0363 521.637 104.674 516.635 111.164C509.067 121.014 498.695 127.579 486.719 120.808C482.408 118.63 479.247 122.291 476.937 125.507C474.569 128.538 472.113 131.411 469.131 133.37C460.304 140.003 449.979 136.604 448.616 125.246C447.791 118.611 449.344 111.606 450.065 105.14C451.156 96.4643 452.775 88.039 453.149 79.2656C453.919 75.0256 451.684 63.4616 456.655 62.031C457.763 61.9003 459 62.6523 459.875 63.9843C460.921 65.5577 461.351 67.815 461.491 69.807C461.835 75.3656 461.287 80.9123 460.668 86.411C459.425 97.1443 457.739 107.724 456.472 118.459C455.636 124.198 458.089 129.924 464.611 125.915C470.167 122.035 474.291 115.678 477.791 109.844C483.012 100.786 480.015 90.1163 482.357 80.3843C483.865 74.0323 484.752 66.119 489.847 61.5936C494.667 56.8616 504.139 59.535 504.72 66.4523C504.969 73.7457 501.213 80.519 498.679 87.1616C496.771 91.7323 494.668 96.1616 492.503 100.604C491.209 103.334 490.064 106.443 490.619 109.432C491.161 112.63 494.113 114.81 497.3 114.659C506.087 113.643 512.177 103.378 517.056 97.007C519.591 93.299 522 89.435 524.295 85.5576C526.113 82.723 527.049 79.2336 525.409 76.3283C524.347 74.2696 522.488 72.3496 521.296 70.2776C519.4 67.047 518.415 62.971 518.384 59.027C519.597 36.1043 545.272 38.447 542.021 61.6976C541.72 69.4483 547.385 63.855 549.785 61.0643C552.819 58.243 556.328 49.319 560.608 50.4483L560.728 50.5123Z" fill="white"/>
<path d="M573.159 19.3537C577.935 24.511 572.103 32.5923 574.385 38.6763C576.523 44.707 581.249 49.771 583.773 55.6137C587.295 63.9777 589.912 73.5936 587.136 82.531C582.751 96.3897 563.716 110.204 550.487 99.539C546.675 95.1657 549.675 90.6043 555.18 93.323C564.783 98.759 575.136 90.6403 578.748 81.683C582.233 73.3337 579.239 63.8777 574.529 56.503C572.795 54.3737 568.675 45.011 565.361 48.2896C563.404 50.7096 562.349 55.4577 559.081 56.715C556.163 57.8523 554.375 54.503 555.051 51.971C556.159 46.5217 559.553 41.1897 559.897 35.539C560.408 30.9523 559.257 26.271 561.608 22.1323C563.58 18.1256 569.503 15.9017 573.008 19.207L573.159 19.3537Z" fill="white"/>
<path d="M259.195 282.497C263.965 282.44 269.525 282.293 270.632 287.404C270.999 289.135 270.575 291.272 269.067 292.278C266.295 294.254 259.517 291.588 255.088 293.211C250.88 294.121 249.216 300.459 252.221 303.124C254.371 305.06 258.283 303.815 260.437 305.855C262.98 308.644 262.225 314.508 258.656 316.421C257.207 317.383 255.448 318.075 254.056 319.171C249.307 322.762 249.728 332.072 256.484 332.845C260.889 334.263 269.155 329.602 270.871 335.418C272.069 340.169 268.037 343.256 263.292 343.087C258.073 343.211 252.819 343.255 247.776 343.283C245.263 343.236 241.899 343.242 240.419 340.954C238.913 337.918 240.555 334.116 240.595 330.814C241.068 322.679 240.596 314.426 240.688 306.236C240.665 302.457 240.741 298.639 240.505 294.871C240.463 291.531 238.921 288.215 240.164 285.13C242.627 280.56 253.877 283.03 258.927 282.499" fill="white"/>
<path d="M278.897 334.554C272.961 332.242 276.713 323.327 276.367 318.504C276.7 309.231 276.364 299.875 276.747 290.634C276.8 284.612 276.899 278.52 276.551 272.493C276.42 269.251 275.463 266.011 275.761 262.818C276.656 257.026 285.559 259.442 289.776 258.866C294.904 259.014 302.037 257.512 304.668 262.416C306.004 265.014 305.979 269.09 304.065 270.962C302.229 272.716 299.011 272.087 296.495 271.838C289.781 270.734 285.663 273.423 286.008 280.88C285.549 295.315 295.725 285.042 297.099 294.872C298.831 308.298 287.044 302.312 285.971 315.938C285.351 320.448 286.201 325.034 286.312 329.54C286.492 333.522 283.041 335.728 279.096 334.615" fill="white"/>
<path d="M314.539 327.72C310.683 326.775 310.387 322.451 310.728 319.078C311.14 314.819 311.6 310.714 311.756 306.485C311.98 297.028 311.604 287.414 312.008 278.066C312.176 269.407 312.265 260.692 311.881 252.016C312.009 247.328 309.396 242.168 311.516 237.83C313.551 235.167 317.728 235.814 320.781 235.694C326.251 235.818 331.915 235.326 337.309 235.642C340.904 235.712 344.495 237.65 345.176 241.396C348.96 264.987 321.539 237.511 322.741 262.704C322.109 281.787 334.9 265.707 335.755 280.099C336.695 293.928 330.484 288.627 325.059 296.571C321.807 302.404 322.301 309.952 322.796 316.578C323.859 323.598 323.912 329.262 314.749 327.776" fill="white"/>
<path d="M374.856 229.779C386.477 228.798 390.831 232.331 388.951 244.542C388.049 249.234 384.36 248.612 380.592 247.803C373.892 246.444 364.996 246.495 364.515 255.298C363.963 259.895 364.136 265.544 367.019 267.167C370.057 269.059 374.871 265.86 377.131 269.298C378.22 271.046 378.332 273.09 378.448 275.151C378.416 278.872 378.889 282.967 377.229 286.383C375.744 288.987 372.411 289.605 370.064 291.272C363.761 295.451 362.287 310.959 367.943 315.675C371.044 317.843 375.227 317.539 378.812 316.974C381.896 316.638 385.912 314.187 388.213 316.54C389.101 317.569 389.4 319.066 389.588 320.447C389.936 323.675 389.941 327.557 388.736 330.318C385.864 336.907 374.887 333.967 368.973 334.827C363.092 334.26 350.899 337.605 351.131 328.502C352.959 316.519 353.032 303.916 352.779 291.844C352.549 279.878 352.705 267.918 352.601 255.883C352.545 251.922 352.512 247.978 351.989 244.054C351.653 239.994 349.86 235.962 351.749 232.452C355.504 227.256 368.32 230.434 374.596 229.784" fill="white"/>
<path d="M411.673 307.559C413.496 314.355 419.273 322.544 426.215 321.315C432.807 321.104 438.115 308.631 444.283 316.38C456.1 335.326 421.419 360.168 404.295 325.568C390.324 298.367 389.347 251.31 403.735 224.166C411.283 208.003 428.172 201.24 440.889 216.362C448.343 225.574 450.715 239.568 449.068 251.423C448.2 256.684 446.008 262.995 441.773 265.734C436.575 269.274 429.973 266.62 427.992 260.479C426.844 257.347 426.141 253.654 427.517 250.504C428.913 247.128 432.835 245.336 434.011 241.663C435.2 238.25 434.091 233.671 431.297 231.574C429.036 229.774 425.784 229.638 422.911 230.674C403.361 239.671 405.636 289.776 411.587 307.29" fill="white"/>
<path d="M457.217 217.555C453.037 215.346 454.159 208.875 454.653 204.308C455.381 199.823 455.787 194.783 459.423 191.978C462.465 189.775 466.852 190.087 470.529 189.902C477.232 189.846 483.892 189.248 490.456 189.435C494.621 189.571 499.291 189.347 502.843 191.776C508.061 194.962 509.423 211.662 506.328 217.052C503.444 220.46 497.82 216.535 493.884 218.323C488.609 220.823 489.361 228.002 489.025 232.94C488.793 248.518 488.861 263.942 488.761 279.538C488.849 296.515 489.355 313.267 489.056 330.279C489.096 337.268 490.927 344.104 490.601 351.066C490.291 355.124 487.091 357.756 483.252 358.238C477.413 359.26 471.812 357.674 471.327 351.8C470.875 348.188 471.641 344.411 472.167 340.828C474.197 325.622 473.599 310.366 473.804 294.987C473.811 275.019 473.82 255.094 474.211 235.148C474.325 228.208 474.108 217.691 464.72 218.132C462.371 218.031 459.477 218.61 457.387 217.638" fill="white"/>
<path d="M501.456 286.895C503.457 278.63 506.277 269.608 511.267 262.886C514.359 259.138 517.905 255.488 521.725 252.562C526.956 249.243 534.876 245.012 540.899 248.195C545.028 250.739 546.747 255.891 548.187 260.331C549.365 264.292 550.897 269.927 546.776 272.634C544.305 274.188 541.064 274.399 538.367 275.536C527.12 280.398 521.643 297.648 523.652 309.343C526.295 326.724 546.613 341.103 563.691 333.827C580.848 328.083 586.653 307.496 584.692 291.163C583.384 281.783 579.492 272.819 575.124 264.468C566.319 248.442 551.131 238.603 540.124 224.484C533.964 216.504 529.903 207.111 528.488 197.192C527.976 189.358 530.355 181.156 534.051 174.251C539.696 165.815 550.3 160.222 560.511 161.139C568.003 161.642 574.533 166.567 579.711 171.959C582.569 175.043 585.733 178.674 585.947 183.047C586.195 188.496 578.859 195.31 573.011 194.676C568.603 194.079 566.276 188.77 562.563 186.332C558.335 183.119 552.14 185.819 550.856 190.79C549.628 194.799 551.171 199.356 553.296 203.244C556.684 209.492 561.689 214.552 566.839 219.351C574.133 226.168 580.808 233.608 587.077 241.384C590.569 245.703 593.473 250.46 595.679 255.558C599.985 264.994 604.48 274.538 605.244 285.008C605.727 291.515 607.16 299.202 606.533 305.492C605.791 311.64 603.479 317.626 601.504 323.514C595.508 340.126 581.523 354.476 564.16 359.076C544.933 364.114 527.052 354.808 515.051 339.952C504.052 326.178 498.875 304.539 501.408 287.151" fill="white"/>
<path d="M554.2 98.9589C550.379 97.9016 547.744 92.5229 548.336 88.9456C548.372 88.7763 548.411 88.7029 548.405 88.8043C548.111 90.4323 547.057 92.4963 546.203 94.2629C542.663 101.914 541.045 109.883 538.228 117.708C532.651 132.35 521.689 142.72 507.889 150.098C494.36 156.724 480.133 161.203 466.177 166.812C389.083 196.274 309.363 226.167 232.847 256.295C221.812 260.619 215.829 262.967 206.792 266.508C201.911 269.439 194.509 265.786 195.924 259.642C196.303 257.879 197.273 256.292 198.633 255.215C201.423 253.54 204.62 252.954 207.707 251.694C215.94 248.783 227.396 244.715 237.125 241.272C319.739 212.042 404.875 181.828 487.169 151.795C503.839 146.315 520.769 137.64 529.403 121.814C534.321 112.636 535.484 101.35 539.645 91.7656C543.387 82.0203 551.184 76.8402 555.955 89.6576C557.075 92.0296 559.157 95.6029 557.787 97.5976C557.099 98.7763 555.709 99.2563 554.389 98.9989" fill="white"/>
<path d="M523.076 391.175C457.476 391.116 397.811 354.385 332.245 354.428C310.875 354.363 290.076 360.132 269.253 364.354C243.035 370.043 210.725 372.02 186.865 356.354C175.032 348.731 166.667 337.948 162.661 324.828C161.692 321.74 161.179 317.548 163.515 315.121C164.965 313.644 167.263 313.552 169.039 315.091C171.289 316.908 172.443 320.454 173.581 323.269C179.583 340.078 193.015 349.16 206.015 353.572C229.083 362.172 261.997 355.176 287.337 349.312C324.993 339.716 362.191 343.204 399.311 353.436C450.005 366.763 502.985 388.788 555.901 376.769C577.565 372.016 598.873 361.363 611.8 344.223C622.489 330.1 628.465 310.348 629.812 285.327C630.147 280.695 630.476 272.756 636.132 273.176C641.277 274.504 640.749 282.14 640.557 286.602C638.093 362.611 583.728 390.962 523.291 391.176" fill="white"/>
<path d="M422.251 403.408C419.009 404.005 415.651 402.391 412.563 401.354C406.804 399.244 400.7 397.015 395.221 395.084C386.949 392.166 378.549 389.384 371.025 387.328C353.949 382.575 335.841 380.24 317.453 381.696C298.135 383.5 277.193 390.318 257.739 393.569C235.141 396.808 212.593 398.447 189.007 392.931C185.903 392.31 180.947 390.123 180.949 387.193C180.949 383.486 187.025 383.759 189.955 384.563C210.727 389.567 231.571 388.467 251.769 385.962C273.513 382.938 296.811 374.83 318.203 373.184C343.207 371.487 365.844 376.135 389.104 384.096C396.737 386.64 405.823 389.946 414.179 393.004C417.089 394.11 420.275 395.069 422.703 396.93C425.7 399.198 425.547 402.599 422.443 403.36" fill="white"/>
<path d="M53.6927 177.07C51.2599 177.13 48.7063 174.663 47.1292 172.634C32.0708 153.559 30.5328 125.466 43.8011 105.055C48.8432 97.4776 55.297 89.815 63.7323 85.995C68.0636 84.4323 71.2167 87.8216 68.0312 91.6976C67.1334 92.8496 65.8678 93.9003 64.5798 94.9203C41.4375 111.638 36.2703 144.619 53.7626 167.45C55.9303 170.112 58.8656 176.31 53.8818 177.063" fill="white"/>
<path d="M36.0505 400.655C32.3708 400.76 26.6812 398.99 28.5771 394.78C29.7151 392.833 33.138 392.442 35.4651 392.398C38.3453 392.332 41.2364 392.056 44.1281 391.219C55.4651 388.152 64.8016 378.602 70.0453 368.571C74.2027 360.44 77.8697 351.686 79.2792 342.56C80.188 338.414 78.5443 330.14 83.876 329.146C90.0333 329.284 87.672 340.208 87.5347 344.215C82.716 369.93 65.6901 400.193 36.3047 400.657" fill="white"/>
<path d="M588.711 122.307C584.704 121.674 585.093 117.35 587.895 115.271C598.788 108.696 607.435 100.556 610.581 87.759C611.337 84.7443 612.712 79.383 616.444 79.8603C618.924 80.255 619.82 83.4803 619.577 85.8763C618.107 100.254 603.852 120.354 588.928 122.335" fill="white"/>
<path d="M656.031 196.351C653.2 196.304 650.653 193.338 648.883 191.156C643.028 183.763 637.257 176.019 632.548 167.707C617.664 143.18 616.216 107.8 643.292 91.7283C646.052 90.103 650.347 88.567 652.669 90.643C655.508 93.2816 651.053 97.0456 648.437 98.3723C645.184 100.243 642.136 102.532 639.585 105.472C624.761 121.947 630.125 147.908 640.38 164.439C644.727 171.98 650.084 179.107 655.493 186.011C657.805 188.603 661.551 195.47 656.215 196.346" fill="white"/>
<path d="M602.309 158.787C599.968 158.874 597.515 156.718 595.651 155.114C583.253 143.6 565.689 139.696 551.077 144.994C548.469 145.811 544.295 145.598 544.037 142.426C543.888 139.128 547.859 137.124 550.685 136.211C567.524 130.616 587.529 135.61 601.609 149.054C604.389 151.324 607.703 157.775 602.505 158.775" fill="white"/>
</g>
<defs>
<clipPath id="clip0_48_2">
<rect width="711.941" height="403.537" fill="white" transform="translate(-53)"/>
</clipPath>
</defs>
</svg>
